<svg width="60" height="60" viewBox="0 0 60 60" fill="none" xmlns="http://www.w3.org/2000/svg">
<g clip-path="url(#clip0)">
<path d="M28.5049 0.32411C23.7174 0.381903 13.4247 1.16863 7.66775 6.45015C3.38549 10.6933 1.89033 16.9666 1.71509 24.7239C1.56967 32.4532 1.39443 46.9685 15.3859 50.9208V56.9406C15.3859 56.9406 15.2983 59.3493 16.8904 59.8433C18.8516 60.4641 19.9683 58.611 21.8326 56.6199L25.3095 52.6882C34.8826 53.4842 42.2148 51.6498 43.0593 51.3776C45.0019 50.7568 55.9434 49.3586 57.7313 34.8414C59.5657 19.8488 56.8383 10.4024 51.9147 6.1295H51.8849C50.399 4.76111 44.4277 0.409868 31.0869 0.361396C31.0869 0.361396 30.097 0.294282 28.5049 0.322246V0.32411ZM28.6689 4.53926C30.028 4.52994 30.8539 4.58773 30.8539 4.58773C42.1458 4.61756 47.5355 8.01615 48.8069 9.16082C52.9531 12.7142 55.0896 21.2302 53.5254 33.747C52.0396 45.8835 43.1656 46.6516 41.5232 47.1755C40.8241 47.3992 34.3662 48.9913 26.2304 48.4674C26.2304 48.4674 20.1715 55.7791 18.2774 57.6621C17.9772 57.9921 17.6268 58.089 17.403 58.0405C17.0824 57.9622 16.9855 57.5651 17.0041 57.0208L17.0619 47.0301C5.19571 43.7489 5.89481 31.3682 6.02159 24.901C6.167 18.4338 7.38065 13.1429 10.9936 9.55978C15.8576 5.16193 24.5973 4.56909 28.6652 4.53926H28.6689ZM29.5638 11.0046C29.4661 11.0036 29.3692 11.022 29.2787 11.0586C29.1882 11.0952 29.1058 11.1494 29.0363 11.2181C28.9668 11.2867 28.9116 11.3684 28.8738 11.4585C28.836 11.5485 28.8164 11.6452 28.8162 11.7429C28.8162 12.1605 29.1555 12.4904 29.5638 12.4904C31.4122 12.4553 33.2493 12.7864 34.9692 13.4648C36.689 14.1431 38.2576 15.1552 39.5843 16.4427C42.2931 19.0732 43.613 22.6079 43.6634 27.2295C43.6634 27.6378 43.9933 27.9771 44.411 27.9771V27.9472C44.6078 27.9477 44.7968 27.8704 44.9368 27.7321C45.0769 27.5938 45.1566 27.4058 45.1585 27.209C45.2491 25.0336 44.8963 22.8626 44.1217 20.8278C43.3471 18.7931 42.1668 16.9371 40.6526 15.3726C37.7014 12.4886 33.9616 11.0027 29.5638 11.0027V11.0046ZM19.7371 12.7142C19.2094 12.637 18.6713 12.743 18.2122 13.0143H18.173C17.1071 13.6391 16.1469 14.4288 15.3281 15.354C14.6476 16.1407 14.2785 16.9368 14.1816 17.703C14.1238 18.1597 14.1629 18.6165 14.299 19.0527L14.3475 19.0826C15.1137 21.3346 16.1148 23.5009 17.3378 25.5404C18.9132 28.4058 20.8519 31.0557 23.1059 33.4245L23.173 33.5214L23.2793 33.5997L23.3464 33.678L23.4247 33.7452C25.8021 36.0058 28.4584 37.9536 31.3293 39.5412C34.6104 41.3272 36.6015 42.1717 37.7965 42.5222V42.5409C38.147 42.6471 38.4657 42.6956 38.7864 42.6956C39.8048 42.621 40.769 42.2075 41.525 41.5211C42.446 40.7021 43.2269 39.7379 43.8368 38.6669V38.6482C44.4091 37.5707 44.2152 36.5509 43.3893 35.8611C41.7354 34.4154 39.9468 33.1312 38.0481 32.0263C36.7767 31.3365 35.4848 31.7541 34.9609 32.4532L33.8442 33.8607C33.2718 34.5598 32.2316 34.4629 32.2316 34.4629L32.2017 34.4816C24.4445 32.4998 22.3751 24.6456 22.3751 24.6456C22.3751 24.6456 22.2782 23.5773 22.9959 23.033L24.3941 21.9069C25.0634 21.3626 25.5295 20.0725 24.8117 18.7992C23.7144 16.8979 22.4331 15.1089 20.9862 13.458C20.6699 13.0688 20.2261 12.804 19.7334 12.7104L19.7371 12.7142ZM30.8539 14.9289C29.8639 14.9289 29.8639 16.4241 30.8632 16.4241C32.0941 16.444 33.3091 16.7064 34.4386 17.1961C35.5681 17.6859 36.59 18.3934 37.446 19.2783C38.2268 20.1396 38.8268 21.1489 39.2104 22.2463C39.5941 23.3438 39.7535 24.507 39.6794 25.6672C39.6828 25.8636 39.763 26.0508 39.9027 26.1887C40.0424 26.3267 40.2306 26.4045 40.427 26.4055L40.4568 26.4446C40.6546 26.4432 40.8439 26.3639 40.9838 26.224C41.1237 26.0842 41.2029 25.8949 41.2044 25.697C41.2715 22.7347 40.3505 20.2496 38.544 18.2585C36.7282 16.2675 34.1947 15.1508 30.9601 14.9289H30.8539ZM32.0787 18.9483C31.0589 18.9185 31.0198 20.4435 32.0302 20.4733C34.4874 20.6001 35.6805 21.8417 35.8371 24.3958C35.8405 24.5896 35.9197 24.7745 36.0577 24.9107C36.1956 25.0469 36.3815 25.1238 36.5754 25.1247H36.6052C36.7049 25.1204 36.8027 25.0963 36.893 25.0538C36.9833 25.0113 37.0642 24.9513 37.131 24.8772C37.1978 24.8031 37.2492 24.7164 37.2822 24.6222C37.3151 24.5281 37.329 24.4282 37.3229 24.3287C37.1477 20.999 35.3319 19.1236 32.1085 18.9502H32.0787V18.9483Z" fill="#142239"/>
</g>
<defs>
<clipPath id="clip0">
<rect width="59.6571" height="59.6571" fill="white" transform="translate(0.171432 0.314453)"/>
</clipPath>
</defs>
</svg>
