<svg width="60" height="60" viewBox="0 0 60 60" fill="none" xmlns="http://www.w3.org/2000/svg">
<path d="M42.495 35.744C41.8096 35.3871 38.3948 33.6918 37.7596 33.4624C37.1245 33.2202 36.6591 33.1055 36.2 33.8193C35.7347 34.5267 34.414 36.1009 33.999 36.5789C33.5965 37.0505 33.1877 37.1079 32.5023 36.7573C28.4272 34.6924 25.7545 33.0736 23.0692 28.4021C22.3586 27.1593 23.7798 27.2485 25.1067 24.5654C25.3331 24.0938 25.2199 23.6923 25.0439 23.3354C24.8678 22.9785 23.4843 19.5242 22.9057 18.1158C22.346 16.7455 21.7674 16.9367 21.3461 16.9112C20.9436 16.8857 20.4845 16.8857 20.0192 16.8857C19.5538 16.8857 18.8055 17.0642 18.1703 17.7589C17.5351 18.4663 15.7429 20.1679 15.7429 23.6222C15.7429 27.0765 18.2269 30.4224 18.5665 30.894C18.9187 31.3656 23.4528 38.4526 30.4144 41.5054C34.8165 43.4301 36.5396 43.5958 38.7407 43.2644C40.0802 43.0604 42.8409 41.5691 43.4132 39.9185C43.9854 38.2742 43.9854 36.8657 43.8157 36.5725C43.6459 36.2602 43.1805 36.0818 42.495 35.744Z" fill="#142239"/>
<path d="M55.8114 19.2267C54.3902 15.8499 52.3529 12.8189 49.7558 10.2156C47.1588 7.61854 44.1279 5.57486 40.7449 4.16C37.2864 2.70741 33.6141 1.97168 29.8286 1.97168H29.7028C25.8922 1.99054 22.201 2.74514 18.7299 4.22917C15.3783 5.66289 12.3726 7.70029 9.8007 10.2973C7.22883 12.8944 5.21032 15.9128 3.81435 19.277C2.36806 22.7607 1.63863 26.4645 1.6575 30.2752C1.67636 34.6392 2.7202 38.9718 4.67583 42.8454V52.4036C4.67583 54.0008 5.9712 55.2962 7.56839 55.2962H17.1327C21.0062 57.2518 25.3388 58.2957 29.7028 58.3145H29.8349C33.6015 58.3145 37.2549 57.5851 40.6946 56.1577C44.0587 54.7554 47.0834 52.7431 49.6741 50.1712C52.2711 47.5993 54.3148 44.5935 55.7422 41.2419C57.2262 37.7708 57.9808 34.0796 57.9996 30.2689C58.0185 26.4393 57.2765 22.723 55.8114 19.2267ZM46.3099 46.7693C41.9019 51.1333 36.0539 53.5354 29.8286 53.5354H29.7217C25.9299 53.5166 22.1633 52.5733 18.8368 50.8001L18.3086 50.5171H9.45485V41.6632L9.17188 41.135C7.39861 37.8085 6.45539 34.0418 6.43652 30.25C6.41137 23.9806 8.80717 18.0948 13.2026 13.6616C17.5918 9.22834 23.4586 6.77591 29.728 6.75076H29.8349C32.979 6.75076 36.0287 7.36072 38.9024 8.56807C41.707 9.74397 44.2222 11.4355 46.3854 13.5987C48.5422 15.7556 50.24 18.2771 51.4159 21.0817C52.6358 23.9869 53.2458 27.0681 53.2332 30.25C53.1955 36.5131 50.7368 42.3801 46.3099 46.7693Z" fill="#142239"/>
</svg>
