<svg width="60" height="60" viewBox="0 0 60 60" fill="none" xmlns="http://www.w3.org/2000/svg"><g clip-path="url(#clip0)"><path d="M28.505.324c-4.788.058-15.08.845-20.837 6.126-4.283 4.243-5.778 10.517-5.953 18.274-.145 7.73-.32 22.244 13.67 26.197v6.02s-.087 2.408 1.505 2.902c1.962.621 3.078-1.232 4.943-3.223l3.477-3.932c9.573.796 16.905-1.038 17.75-1.31 1.942-.621 12.883-2.02 14.671-16.537 1.835-14.992-.893-24.439-5.816-28.712h-.03C50.399 4.761 44.428.41 31.087.362c0 0-.99-.067-2.582-.039v.002zm.164 4.215c1.359-.01 2.185.049 2.185.049 11.292.03 16.681 3.428 17.953 4.573 4.146 3.553 6.283 12.07 4.718 24.586-1.485 12.136-10.36 12.905-12.002 13.428-.699.224-7.157 1.816-15.293 1.292 0 0-6.058 7.312-7.953 9.195-.3.33-.65.427-.874.379-.32-.079-.418-.476-.399-1.02l.058-9.99C5.196 43.748 5.895 31.367 6.022 24.9c.145-6.467 1.359-11.758 4.972-15.341 4.864-4.398 13.603-4.99 17.671-5.02h.004zm.895 6.466a.74.74 0 00-.748.738c0 .418.34.747.748.747a14.007 14.007 0 0110.02 3.953c2.71 2.63 4.029 6.165 4.08 10.787 0 .408.33.747.747.747v-.03a.745.745 0 00.747-.738 16.058 16.058 0 00-4.505-11.836c-2.952-2.884-6.691-4.37-11.09-4.37v.002zm-9.827 1.71a2.333 2.333 0 00-1.525.3h-.039a11.7 11.7 0 00-2.845 2.339c-.68.787-1.05 1.583-1.146 2.349a3.16 3.16 0 00.117 1.35l.049.03a33.603 33.603 0 002.99 6.457 37.986 37.986 0 005.768 7.885l.067.096.106.079.067.078.079.067a38.531 38.531 0 007.904 5.796c3.281 1.786 5.273 2.63 6.468 2.981v.019c.35.106.669.155.99.155a4.571 4.571 0 002.738-1.175 11.307 11.307 0 002.312-2.854v-.019c.572-1.077.378-2.097-.448-2.787a34.423 34.423 0 00-5.34-3.835c-1.272-.69-2.564-.272-3.088.427l-1.117 1.408c-.572.699-1.612.602-1.612.602l-.03.019c-7.757-1.982-9.827-9.836-9.827-9.836s-.097-1.069.62-1.613l1.4-1.126c.668-.544 1.134-1.834.417-3.108a33.538 33.538 0 00-3.826-5.341 2.126 2.126 0 00-1.253-.748l.004.004zm11.117 2.214c-.99 0-.99 1.495.01 1.495a9.37 9.37 0 016.582 2.854 8.687 8.687 0 012.233 6.39.751.751 0 00.748.738l.03.039a.753.753 0 00.747-.748c.068-2.962-.854-5.447-2.66-7.438-1.816-1.992-4.35-3.108-7.584-3.33h-.106zm1.225 4.02c-1.02-.03-1.06 1.494-.049 1.524 2.457.127 3.65 1.369 3.807 3.923a.742.742 0 00.738.729h.03a.752.752 0 00.718-.796c-.175-3.33-1.991-5.205-5.215-5.379h-.03v-.002z" fill="#142239"/></g><defs><clipPath id="clip0"><path fill="#fff" transform="translate(.171 .314)" d="M0 0h59.657v59.657H0z"/></clipPath></defs></svg>