<svg width="60" height="60" viewBox="0 0 60 60" fill="none" xmlns="http://www.w3.org/2000/svg"><path d="M42.495 35.744c-.685-.357-4.1-2.052-4.735-2.282-.636-.242-1.1-.357-1.56.357-.465.708-1.786 2.282-2.201 2.76-.403.471-.811.529-1.497.178-4.075-2.065-6.748-3.683-9.433-8.355-.71-1.243.71-1.154 2.038-3.837.226-.471.113-.873-.063-1.23s-1.56-3.81-2.138-5.22c-.56-1.37-1.139-1.178-1.56-1.204-.402-.025-.861-.025-1.327-.025-.465 0-1.213.178-1.849.873-.635.707-2.427 2.409-2.427 5.863 0 3.454 2.484 6.8 2.824 7.272.352.472 4.886 7.559 11.847 10.611 4.402 1.925 6.126 2.09 8.327 1.76 1.34-.205 4.1-1.696 4.672-3.346.572-1.645.572-3.053.403-3.346-.17-.313-.636-.491-1.321-.829z" fill="#142239"/><path d="M55.811 19.227a28.18 28.18 0 00-6.055-9.011 27.942 27.942 0 00-9.011-6.056 28.037 28.037 0 00-10.916-2.188h-.126A28.105 28.105 0 009.8 10.297a27.917 27.917 0 00-5.987 8.98 28.182 28.182 0 00-2.157 10.998 28.26 28.26 0 003.019 12.57v9.559a2.893 2.893 0 002.892 2.892h9.565c3.873 1.956 8.206 3 12.57 3.019h.132c3.767 0 7.42-.73 10.86-2.157a27.95 27.95 0 008.98-5.987 27.904 27.904 0 006.067-8.93A28.105 28.105 0 0058 30.27a28.065 28.065 0 00-2.189-11.042zM46.31 46.769c-4.408 4.364-10.256 6.766-16.481 6.766h-.107A23.475 23.475 0 0118.837 50.8l-.528-.283H9.455v-8.854l-.283-.528A23.476 23.476 0 016.437 30.25c-.026-6.27 2.37-12.155 6.766-16.588 4.389-4.434 10.256-6.886 16.525-6.911h.107c3.144 0 6.194.61 9.067 1.817a23.242 23.242 0 017.483 5.03 23.277 23.277 0 015.03 7.484 23.297 23.297 0 011.818 9.168c-.037 6.263-2.496 12.13-6.923 16.52z" fill="#142239"/></svg>